<svg xmlns="http://www.w3.org/2000/svg" xmlns:xlink="http://www.w3.org/1999/xlink" width="500" zoomAndPan="magnify" viewBox="0 0 375 112.499997" height="150" preserveAspectRatio="xMidYMid meet" version="1.0"><defs><g/></defs><g fill="#ffde59" fill-opacity="1"><g transform="translate(4.356853, 87.390307)"><g><path d="M 19.109375 -66.734375 L 40.921875 -12.28125 L 62.734375 -66.734375 L 74.15625 -66.734375 L 74.15625 0 L 65.359375 0 L 65.359375 -25.984375 L 66.171875 -54.03125 L 44.265625 0 L 37.53125 0 L 15.671875 -53.890625 L 16.546875 -25.984375 L 16.546875 0 L 7.75 0 L 7.75 -66.734375 Z M 19.109375 -66.734375 "/></g></g></g><g fill="#ffde59" fill-opacity="1"><g transform="translate(80.668931, 87.390307)"><g><path d="M 57.015625 -8.75 C 54.753906 -5.507812 51.597656 -3.085938 47.546875 -1.484375 C 43.492188 0.117188 38.78125 0.921875 33.40625 0.921875 C 27.96875 0.921875 23.140625 -0.351562 18.921875 -2.90625 C 14.710938 -5.457031 11.453125 -9.085938 9.140625 -13.796875 C 6.835938 -18.503906 5.65625 -23.957031 5.59375 -30.15625 L 5.59375 -35.96875 C 5.59375 -46.019531 7.9375 -53.8125 12.625 -59.34375 C 17.3125 -64.875 23.90625 -67.640625 32.40625 -67.640625 C 39.363281 -67.640625 44.96875 -65.859375 49.21875 -62.296875 C 53.46875 -58.742188 56.066406 -53.695312 57.015625 -47.15625 L 48.21875 -47.15625 C 46.5625 -55.988281 41.304688 -60.40625 32.453125 -60.40625 C 26.554688 -60.40625 22.085938 -58.332031 19.046875 -54.1875 C 16.003906 -50.050781 14.46875 -44.054688 14.4375 -36.203125 L 14.4375 -30.75 C 14.4375 -23.269531 16.144531 -17.320312 19.5625 -12.90625 C 22.988281 -8.488281 27.617188 -6.28125 33.453125 -6.28125 C 36.753906 -6.28125 39.640625 -6.644531 42.109375 -7.375 C 44.585938 -8.113281 46.640625 -9.351562 48.265625 -11.09375 L 48.265625 -26.078125 L 32.8125 -26.078125 L 32.8125 -33.234375 L 57.015625 -33.234375 Z M 57.015625 -8.75 "/></g></g></g><g fill="#ffde59" fill-opacity="1"><g transform="translate(138.969862, 87.390307)"><g><path d="M 45.46875 -30.84375 L 16.546875 -30.84375 L 16.546875 -7.1875 L 50.140625 -7.1875 L 50.140625 0 L 7.75 0 L 7.75 -66.734375 L 49.671875 -66.734375 L 49.671875 -59.484375 L 16.546875 -59.484375 L 16.546875 -38.03125 L 45.46875 -38.03125 Z M 45.46875 -30.84375 "/></g></g></g><path stroke-linecap="butt" transform="matrix(0.748399, 0, 0, 0.746681, 146.782554, 20.239783)" fill="none" stroke-linejoin="miter" d="M -0.00174281 1.002434 L 210.515244 1.002434 " stroke="#ffde59" stroke-width="2" stroke-opacity="1" stroke-miterlimit="4"/><path stroke-linecap="butt" transform="matrix(0.748399, 0, 0, 0.746681, 146.782554, 87.351189)" fill="none" stroke-linejoin="miter" d="M -0.00174281 0.999713 L 210.515244 0.999713 " stroke="#ffde59" stroke-width="2" stroke-opacity="1" stroke-miterlimit="4"/><g fill="#ffffff" fill-opacity="1"><g transform="translate(194.012134, 79.896528)"><g><path d="M 5.953125 -4.3125 L 2.8125 -4.3125 L 2.8125 -1.671875 L 6.53125 -1.671875 L 6.53125 0 L 0.796875 0 L 0.796875 -9.96875 L 6.515625 -9.96875 L 6.515625 -8.296875 L 2.8125 -8.296875 L 2.8125 -5.9375 L 5.953125 -5.9375 Z M 5.953125 -4.3125 "/></g></g></g><g fill="#ffffff" fill-opacity="1"><g transform="translate(208.613126, 79.896528)"><g><path d="M 3.921875 -6.546875 L 5.265625 -9.96875 L 7.578125 -9.96875 L 5.234375 -5.03125 L 7.625 0 L 5.296875 0 L 3.921875 -3.484375 L 2.5625 0 L 0.21875 0 L 2.625 -5.03125 L 0.28125 -9.96875 L 2.578125 -9.96875 Z M 3.921875 -6.546875 "/></g></g></g><g fill="#ffffff" fill-opacity="1"><g transform="translate(224.179612, 79.896528)"><g><path d="M 2.8125 -3.515625 L 2.8125 0 L 0.796875 0 L 0.796875 -9.96875 L 4.203125 -9.96875 C 5.179688 -9.96875 5.960938 -9.660156 6.546875 -9.046875 C 7.140625 -8.441406 7.4375 -7.648438 7.4375 -6.671875 C 7.4375 -5.691406 7.144531 -4.921875 6.5625 -4.359375 C 5.988281 -3.796875 5.1875 -3.515625 4.15625 -3.515625 Z M 2.8125 -5.1875 L 4.203125 -5.1875 C 4.585938 -5.1875 4.882812 -5.3125 5.09375 -5.5625 C 5.300781 -5.8125 5.40625 -6.175781 5.40625 -6.65625 C 5.40625 -7.15625 5.296875 -7.550781 5.078125 -7.84375 C 4.867188 -8.144531 4.582031 -8.296875 4.21875 -8.296875 L 2.8125 -8.296875 Z M 2.8125 -5.1875 "/></g></g></g><g fill="#ffffff" fill-opacity="1"><g transform="translate(239.876199, 79.896528)"><g><path d="M 7.828125 -4.09375 C 7.828125 -2.75 7.507812 -1.707031 6.875 -0.96875 C 6.238281 -0.226562 5.359375 0.140625 4.234375 0.140625 C 3.117188 0.140625 2.238281 -0.222656 1.59375 -0.953125 C 0.957031 -1.691406 0.632812 -2.722656 0.625 -4.046875 L 0.625 -5.75 C 0.625 -7.113281 0.941406 -8.179688 1.578125 -8.953125 C 2.210938 -9.722656 3.097656 -10.109375 4.234375 -10.109375 C 5.335938 -10.109375 6.207031 -9.726562 6.84375 -8.96875 C 7.488281 -8.21875 7.816406 -7.160156 7.828125 -5.796875 Z M 5.796875 -5.765625 C 5.796875 -6.660156 5.664062 -7.328125 5.40625 -7.765625 C 5.15625 -8.203125 4.765625 -8.421875 4.234375 -8.421875 C 3.691406 -8.421875 3.289062 -8.207031 3.03125 -7.78125 C 2.78125 -7.363281 2.648438 -6.722656 2.640625 -5.859375 L 2.640625 -4.09375 C 2.640625 -3.21875 2.769531 -2.570312 3.03125 -2.15625 C 3.289062 -1.75 3.691406 -1.546875 4.234375 -1.546875 C 4.765625 -1.546875 5.15625 -1.742188 5.40625 -2.140625 C 5.664062 -2.546875 5.796875 -3.175781 5.796875 -4.03125 Z M 5.796875 -5.765625 "/></g></g></g><g fill="#ffffff" fill-opacity="1"><g transform="translate(256.058956, 79.896528)"><g><path d="M 3.828125 -3.640625 L 2.828125 -3.640625 L 2.828125 0 L 0.8125 0 L 0.8125 -9.96875 L 4.015625 -9.96875 C 5.023438 -9.96875 5.804688 -9.707031 6.359375 -9.1875 C 6.910156 -8.664062 7.1875 -7.921875 7.1875 -6.953125 C 7.1875 -5.628906 6.703125 -4.703125 5.734375 -4.171875 L 7.484375 -0.09375 L 7.484375 0 L 5.328125 0 Z M 2.828125 -5.328125 L 3.96875 -5.328125 C 4.363281 -5.328125 4.660156 -5.457031 4.859375 -5.71875 C 5.066406 -5.988281 5.171875 -6.347656 5.171875 -6.796875 C 5.171875 -7.796875 4.78125 -8.296875 4 -8.296875 L 2.828125 -8.296875 Z M 2.828125 -5.328125 "/></g></g></g><g fill="#ffffff" fill-opacity="1"><g transform="translate(271.543274, 79.896528)"><g><path d="M 7.265625 -8.296875 L 4.796875 -8.296875 L 4.796875 0 L 2.78125 0 L 2.78125 -8.296875 L 0.34375 -8.296875 L 0.34375 -9.96875 L 7.265625 -9.96875 Z M 7.265625 -8.296875 "/></g></g></g><g fill="#ffffff" fill-opacity="1"><g transform="translate(286.876949, 79.896528)"><g><path d="M 5.015625 -2.609375 C 5.015625 -3.023438 4.910156 -3.332031 4.703125 -3.53125 C 4.492188 -3.738281 4.113281 -3.957031 3.5625 -4.1875 C 2.5625 -4.5625 1.84375 -5.003906 1.40625 -5.515625 C 0.96875 -6.023438 0.75 -6.628906 0.75 -7.328125 C 0.75 -8.160156 1.046875 -8.832031 1.640625 -9.34375 C 2.242188 -9.851562 3.003906 -10.109375 3.921875 -10.109375 C 4.535156 -10.109375 5.082031 -9.976562 5.5625 -9.71875 C 6.039062 -9.46875 6.40625 -9.101562 6.65625 -8.625 C 6.914062 -8.15625 7.046875 -7.625 7.046875 -7.03125 L 5.046875 -7.03125 C 5.046875 -7.5 4.945312 -7.851562 4.75 -8.09375 C 4.550781 -8.34375 4.265625 -8.46875 3.890625 -8.46875 C 3.535156 -8.46875 3.257812 -8.363281 3.0625 -8.15625 C 2.863281 -7.945312 2.765625 -7.664062 2.765625 -7.3125 C 2.765625 -7.039062 2.875 -6.789062 3.09375 -6.5625 C 3.3125 -6.34375 3.703125 -6.113281 4.265625 -5.875 C 5.234375 -5.519531 5.9375 -5.085938 6.375 -4.578125 C 6.820312 -4.066406 7.046875 -3.414062 7.046875 -2.625 C 7.046875 -1.757812 6.769531 -1.082031 6.21875 -0.59375 C 5.664062 -0.101562 4.910156 0.140625 3.953125 0.140625 C 3.316406 0.140625 2.734375 0.0078125 2.203125 -0.25 C 1.671875 -0.519531 1.253906 -0.898438 0.953125 -1.390625 C 0.648438 -1.890625 0.5 -2.472656 0.5 -3.140625 L 2.53125 -3.140625 C 2.53125 -2.566406 2.640625 -2.148438 2.859375 -1.890625 C 3.085938 -1.628906 3.453125 -1.5 3.953125 -1.5 C 4.660156 -1.5 5.015625 -1.867188 5.015625 -2.609375 Z M 5.015625 -2.609375 "/></g></g></g><g fill="#ffffff" fill-opacity="1"><g transform="translate(194.012134, 38.082372)"><g><path d="M 3.4375 -9.96875 L 5.3125 -2.765625 L 7.1875 -9.96875 L 9.828125 -9.96875 L 9.828125 0 L 7.796875 0 L 7.796875 -2.703125 L 7.984375 -6.859375 L 6 0 L 4.625 0 L 2.625 -6.859375 L 2.8125 -2.703125 L 2.8125 0 L 0.796875 0 L 0.796875 -9.96875 Z M 3.4375 -9.96875 "/></g></g></g><g fill="#ffffff" fill-opacity="1"><g transform="translate(212.365537, 38.082372)"><g><path d="M 5.5625 -2.046875 L 2.8125 -2.046875 L 2.28125 0 L 0.15625 0 L 3.265625 -9.96875 L 5.109375 -9.96875 L 8.25 0 L 6.09375 0 Z M 3.25 -3.71875 L 5.125 -3.71875 L 4.1875 -7.28125 Z M 3.25 -3.71875 "/></g></g></g><g fill="#ffffff" fill-opacity="1"><g transform="translate(228.459277, 38.082372)"><g><path d="M 3.609375 -3.84375 L 2.8125 -2.84375 L 2.8125 0 L 0.796875 0 L 0.796875 -9.96875 L 2.8125 -9.96875 L 2.8125 -5.625 L 3.453125 -6.703125 L 5.3125 -9.96875 L 7.78125 -9.96875 L 4.921875 -5.59375 L 7.828125 0 L 5.4375 0 Z M 3.609375 -3.84375 "/></g></g></g><g fill="#ffffff" fill-opacity="1"><g transform="translate(243.936742, 38.082372)"><g><path d="M 7.828125 -4.09375 C 7.828125 -2.75 7.507812 -1.707031 6.875 -0.96875 C 6.238281 -0.226562 5.359375 0.140625 4.234375 0.140625 C 3.117188 0.140625 2.238281 -0.222656 1.59375 -0.953125 C 0.957031 -1.691406 0.632812 -2.722656 0.625 -4.046875 L 0.625 -5.75 C 0.625 -7.113281 0.941406 -8.179688 1.578125 -8.953125 C 2.210938 -9.722656 3.097656 -10.109375 4.234375 -10.109375 C 5.335938 -10.109375 6.207031 -9.726562 6.84375 -8.96875 C 7.488281 -8.21875 7.816406 -7.160156 7.828125 -5.796875 Z M 5.796875 -5.765625 C 5.796875 -6.660156 5.664062 -7.328125 5.40625 -7.765625 C 5.15625 -8.203125 4.765625 -8.421875 4.234375 -8.421875 C 3.691406 -8.421875 3.289062 -8.207031 3.03125 -7.78125 C 2.78125 -7.363281 2.648438 -6.722656 2.640625 -5.859375 L 2.640625 -4.09375 C 2.640625 -3.21875 2.769531 -2.570312 3.03125 -2.15625 C 3.289062 -1.75 3.691406 -1.546875 4.234375 -1.546875 C 4.765625 -1.546875 5.15625 -1.742188 5.40625 -2.140625 C 5.664062 -2.546875 5.796875 -3.175781 5.796875 -4.03125 Z M 5.796875 -5.765625 "/></g></g></g><g fill="#ffffff" fill-opacity="1"><g transform="translate(260.119502, 38.082372)"><g><path d="M 4.046875 -2.734375 L 5.734375 -9.96875 L 7.96875 -9.96875 L 5.09375 0 L 3 0 L 0.140625 -9.96875 L 2.375 -9.96875 Z M 4.046875 -2.734375 "/></g></g></g><g fill="#ffffff" fill-opacity="1"><g transform="translate(275.946194, 38.082372)"><g><path d="M 5.953125 -4.3125 L 2.8125 -4.3125 L 2.8125 -1.671875 L 6.53125 -1.671875 L 6.53125 0 L 0.796875 0 L 0.796875 -9.96875 L 6.515625 -9.96875 L 6.515625 -8.296875 L 2.8125 -8.296875 L 2.8125 -5.9375 L 5.953125 -5.9375 Z M 5.953125 -4.3125 "/></g></g></g><g fill="#ffffff" fill-opacity="1"><g transform="translate(290.54719, 38.082372)"><g><path d="M 7.265625 -8.296875 L 4.796875 -8.296875 L 4.796875 0 L 2.78125 0 L 2.78125 -8.296875 L 0.34375 -8.296875 L 0.34375 -9.96875 L 7.265625 -9.96875 Z M 7.265625 -8.296875 "/></g></g></g><g fill="#ffffff" fill-opacity="1"><g transform="translate(305.880864, 38.082372)"><g><path d="M 5.015625 -2.609375 C 5.015625 -3.023438 4.910156 -3.332031 4.703125 -3.53125 C 4.492188 -3.738281 4.113281 -3.957031 3.5625 -4.1875 C 2.5625 -4.5625 1.84375 -5.003906 1.40625 -5.515625 C 0.96875 -6.023438 0.75 -6.628906 0.75 -7.328125 C 0.75 -8.160156 1.046875 -8.832031 1.640625 -9.34375 C 2.242188 -9.851562 3.003906 -10.109375 3.921875 -10.109375 C 4.535156 -10.109375 5.082031 -9.976562 5.5625 -9.71875 C 6.039062 -9.46875 6.40625 -9.101562 6.65625 -8.625 C 6.914062 -8.15625 7.046875 -7.625 7.046875 -7.03125 L 5.046875 -7.03125 C 5.046875 -7.5 4.945312 -7.851562 4.75 -8.09375 C 4.550781 -8.34375 4.265625 -8.46875 3.890625 -8.46875 C 3.535156 -8.46875 3.257812 -8.363281 3.0625 -8.15625 C 2.863281 -7.945312 2.765625 -7.664062 2.765625 -7.3125 C 2.765625 -7.039062 2.875 -6.789062 3.09375 -6.5625 C 3.3125 -6.34375 3.703125 -6.113281 4.265625 -5.875 C 5.234375 -5.519531 5.9375 -5.085938 6.375 -4.578125 C 6.820312 -4.066406 7.046875 -3.414062 7.046875 -2.625 C 7.046875 -1.757812 6.769531 -1.082031 6.21875 -0.59375 C 5.664062 -0.101562 4.910156 0.140625 3.953125 0.140625 C 3.316406 0.140625 2.734375 0.0078125 2.203125 -0.25 C 1.671875 -0.519531 1.253906 -0.898438 0.953125 -1.390625 C 0.648438 -1.890625 0.5 -2.472656 0.5 -3.140625 L 2.53125 -3.140625 C 2.53125 -2.566406 2.640625 -2.148438 2.859375 -1.890625 C 3.085938 -1.628906 3.453125 -1.5 3.953125 -1.5 C 4.660156 -1.5 5.015625 -1.867188 5.015625 -2.609375 Z M 5.015625 -2.609375 "/></g></g></g><g fill="#ffffff" fill-opacity="1"><g transform="translate(321.173453, 38.082372)"><g><path d="M 3.609375 -3.84375 L 2.8125 -2.84375 L 2.8125 0 L 0.796875 0 L 0.796875 -9.96875 L 2.8125 -9.96875 L 2.8125 -5.625 L 3.453125 -6.703125 L 5.3125 -9.96875 L 7.78125 -9.96875 L 4.921875 -5.59375 L 7.828125 0 L 5.4375 0 Z M 3.609375 -3.84375 "/></g></g></g><g fill="#ffffff" fill-opacity="1"><g transform="translate(336.650925, 38.082372)"><g><path d="M 3.8125 -5.5 L 5.3125 -9.96875 L 7.5 -9.96875 L 4.828125 -3.625 L 4.828125 0 L 2.78125 0 L 2.78125 -3.625 L 0.109375 -9.96875 L 2.296875 -9.96875 Z M 3.8125 -5.5 "/></g></g></g><g fill="#ffffff" fill-opacity="1"><g transform="translate(351.977751, 38.082372)"><g><path d="M 2.90625 0 L 0.890625 0 L 0.890625 -9.96875 L 2.90625 -9.96875 Z M 2.90625 0 "/></g></g></g><g fill="#ffffff" fill-opacity="1"><g transform="translate(194.012134, 58.98945)"><g><path d="M 7.578125 -1.125 C 7.191406 -0.707031 6.71875 -0.390625 6.15625 -0.171875 C 5.59375 0.0351562 4.972656 0.140625 4.296875 0.140625 C 3.148438 0.140625 2.257812 -0.210938 1.625 -0.921875 C 0.988281 -1.640625 0.664062 -2.675781 0.65625 -4.03125 L 0.65625 -5.828125 C 0.65625 -7.203125 0.953125 -8.257812 1.546875 -9 C 2.148438 -9.738281 3.023438 -10.109375 4.171875 -10.109375 C 5.253906 -10.109375 6.070312 -9.84375 6.625 -9.3125 C 7.175781 -8.78125 7.492188 -7.941406 7.578125 -6.796875 L 5.625 -6.796875 C 5.570312 -7.429688 5.4375 -7.863281 5.21875 -8.09375 C 5.007812 -8.320312 4.679688 -8.4375 4.234375 -8.4375 C 3.691406 -8.4375 3.296875 -8.238281 3.046875 -7.84375 C 2.804688 -7.445312 2.679688 -6.816406 2.671875 -5.953125 L 2.671875 -4.140625 C 2.671875 -3.234375 2.804688 -2.570312 3.078125 -2.15625 C 3.347656 -1.738281 3.796875 -1.53125 4.421875 -1.53125 C 4.816406 -1.53125 5.140625 -1.613281 5.390625 -1.78125 L 5.5625 -1.890625 L 5.5625 -3.734375 L 4.15625 -3.734375 L 4.15625 -5.25 L 7.578125 -5.25 Z M 7.578125 -1.125 "/></g></g></g><g fill="#ffffff" fill-opacity="1"><g transform="translate(209.934687, 58.98945)"><g><path d="M 2.8125 -1.671875 L 6.34375 -1.671875 L 6.34375 0 L 0.796875 0 L 0.796875 -9.96875 L 2.8125 -9.96875 Z M 2.8125 -1.671875 "/></g></g></g><g fill="#ffffff" fill-opacity="1"><g transform="translate(224.364494, 58.98945)"><g><path d="M 7.828125 -4.09375 C 7.828125 -2.75 7.507812 -1.707031 6.875 -0.96875 C 6.238281 -0.226562 5.359375 0.140625 4.234375 0.140625 C 3.117188 0.140625 2.238281 -0.222656 1.59375 -0.953125 C 0.957031 -1.691406 0.632812 -2.722656 0.625 -4.046875 L 0.625 -5.75 C 0.625 -7.113281 0.941406 -8.179688 1.578125 -8.953125 C 2.210938 -9.722656 3.097656 -10.109375 4.234375 -10.109375 C 5.335938 -10.109375 6.207031 -9.726562 6.84375 -8.96875 C 7.488281 -8.21875 7.816406 -7.160156 7.828125 -5.796875 Z M 5.796875 -5.765625 C 5.796875 -6.660156 5.664062 -7.328125 5.40625 -7.765625 C 5.15625 -8.203125 4.765625 -8.421875 4.234375 -8.421875 C 3.691406 -8.421875 3.289062 -8.207031 3.03125 -7.78125 C 2.78125 -7.363281 2.648438 -6.722656 2.640625 -5.859375 L 2.640625 -4.09375 C 2.640625 -3.21875 2.769531 -2.570312 3.03125 -2.15625 C 3.289062 -1.75 3.691406 -1.546875 4.234375 -1.546875 C 4.765625 -1.546875 5.15625 -1.742188 5.40625 -2.140625 C 5.664062 -2.546875 5.796875 -3.175781 5.796875 -4.03125 Z M 5.796875 -5.765625 "/></g></g></g><g fill="#ffffff" fill-opacity="1"><g transform="translate(240.547251, 58.98945)"><g><path d="M 0.796875 0 L 0.796875 -9.96875 L 3.890625 -9.96875 C 4.929688 -9.96875 5.722656 -9.734375 6.265625 -9.265625 C 6.804688 -8.804688 7.078125 -8.128906 7.078125 -7.234375 C 7.078125 -6.734375 6.960938 -6.300781 6.734375 -5.9375 C 6.515625 -5.570312 6.207031 -5.300781 5.8125 -5.125 C 6.257812 -5 6.601562 -4.742188 6.84375 -4.359375 C 7.09375 -3.972656 7.21875 -3.5 7.21875 -2.9375 C 7.21875 -1.96875 6.953125 -1.234375 6.421875 -0.734375 C 5.890625 -0.242188 5.117188 0 4.109375 0 Z M 2.8125 -4.34375 L 2.8125 -1.671875 L 4.109375 -1.671875 C 4.460938 -1.671875 4.734375 -1.78125 4.921875 -2 C 5.109375 -2.226562 5.203125 -2.546875 5.203125 -2.953125 C 5.203125 -3.847656 4.878906 -4.3125 4.234375 -4.34375 Z M 2.8125 -5.796875 L 3.859375 -5.796875 C 4.648438 -5.796875 5.046875 -6.207031 5.046875 -7.03125 C 5.046875 -7.476562 4.953125 -7.800781 4.765625 -8 C 4.585938 -8.195312 4.296875 -8.296875 3.890625 -8.296875 L 2.8125 -8.296875 Z M 2.8125 -5.796875 "/></g></g></g><g fill="#ffffff" fill-opacity="1"><g transform="translate(256.134278, 58.98945)"><g><path d="M 5.5625 -2.046875 L 2.8125 -2.046875 L 2.28125 0 L 0.15625 0 L 3.265625 -9.96875 L 5.109375 -9.96875 L 8.25 0 L 6.09375 0 Z M 3.25 -3.71875 L 5.125 -3.71875 L 4.1875 -7.28125 Z M 3.25 -3.71875 "/></g></g></g><g fill="#ffffff" fill-opacity="1"><g transform="translate(272.228021, 58.98945)"><g><path d="M 2.8125 -1.671875 L 6.34375 -1.671875 L 6.34375 0 L 0.796875 0 L 0.796875 -9.96875 L 2.8125 -9.96875 Z M 2.8125 -1.671875 "/></g></g></g></svg>